<svg xmlns="http://www.w3.org/2000/svg" viewBox="0 0 192 192">
  <defs>
    <linearGradient id="bg192" x1="0%" y1="0%" x2="100%" y2="100%">
      <stop offset="0%" style="stop-color:#10b981"/>
      <stop offset="100%" style="stop-color:#059669"/>
    </linearGradient>
  </defs>
  
  <!-- Background -->
  <rect width="192" height="192" rx="38" fill="url(#bg192)"/>
  
  <!-- Book icon -->
  <g transform="translate(40, 40)">
    <!-- Open book -->
    <path d="M56 20 L56 95 Q28 82 7 95 L7 27 Q28 14 56 20 Z" 
          fill="white" opacity="0.9"/>
    <path d="M56 20 L56 95 Q84 82 105 95 L105 27 Q84 14 56 20 Z" 
          fill="white" opacity="0.95"/>
    
    <!-- Book spine -->
    <line x1="56" y1="20" x2="56" y2="95" stroke="white" stroke-width="2.5" opacity="0.5"/>
    
    <!-- Text lines left -->
    <line x1="16" y1="40" x2="44" y2="37" stroke="#059669" stroke-width="2.5" stroke-linecap="round" opacity="0.4"/>
    <line x1="16" y1="54" x2="44" y2="51" stroke="#059669" stroke-width="2.5" stroke-linecap="round" opacity="0.4"/>
    <line x1="16" y1="68" x2="38" y2="65" stroke="#059669" stroke-width="2.5" stroke-linecap="round" opacity="0.4"/>
    
    <!-- Text lines right -->
    <line x1="68" y1="37" x2="96" y2="40" stroke="#059669" stroke-width="2.5" stroke-linecap="round" opacity="0.4"/>
    <line x1="68" y1="51" x2="96" y2="54" stroke="#059669" stroke-width="2.5" stroke-linecap="round" opacity="0.4"/>
    <line x1="74" y1="65" x2="96" y2="68" stroke="#059669" stroke-width="2.5" stroke-linecap="round" opacity="0.4"/>
  </g>
</svg>
